<svg width="263" height="216" viewBox="0 0 263 216" fill="none" xmlns="http://www.w3.org/2000/svg"><path d="M52.6679 107.66C52.6679 64.2591 87.8411 29.076 131.232 29.076C153.038 29.076 172.766 37.9669 187 52.3192L238.825 106.022C237.947 47.3211 190.129 -0.00123619 131.232 -0.00123619C90.9255 -0.00123619 55.8015 22.1704 37.3649 54.9774H0L52.6679 107.66Z" fill="url(#paint0_linear_8931_66882)"/><path d="M131.228 215.336C171.537 215.336 206.656 193.167 225.095 160.352H262.46L209.79 107.667C209.79 151.07 174.619 186.261 131.228 186.261C109.422 186.261 89.6941 177.363 75.4597 163.016L23.6328 109.31C24.5126 168.011 72.3313 215.336 131.228 215.336Z" fill="url(#paint1_linear_8931_66882)"/><path d="M168.123 130.7C169.872 127.855 169.929 126.168 163.155 121.915C160.922 120.515 156.222 116.873 151.247 113.019C144.853 108.062 135.185 100.572 133.472 100.238C132.476 100.241 131.534 100.712 129.658 101.646C128.028 102.459 125.798 103.574 122.395 104.946C114.314 108.205 108.743 107.829 104.952 103.95C103.549 102.508 102.118 100.712 102.152 98.2889C102.188 95.5945 103.997 92.6567 108.016 88.7561C110.533 86.3127 115.256 82.7615 118.529 80.3803C114.177 80.6495 106.918 81.3483 98.6899 83.1472L87.4727 114.238L88.0342 114.8C89.5841 113.718 92.8341 111.813 96.462 111.813C99.0521 111.813 102.664 112.825 105.519 117.497C105.77 117.479 106.07 117.466 106.401 117.466C108.585 117.466 113.778 118.095 116.436 123.711C118.651 123.776 124.444 124.599 126.796 131.155C128.69 131.463 132.963 132.672 134.784 137.373C136.544 141.915 135.444 146.251 131.772 149.465C132.963 150.446 135.255 151.616 137.449 150.842C139.256 150.195 139.908 148.979 140.135 148.073C140.472 146.735 140.104 145.179 139.219 144.198L139.018 143.988C138.549 143.471 138.578 142.671 139.08 142.187C139.579 141.703 140.373 141.7 140.878 142.189L140.932 142.246C140.948 142.262 141.126 142.448 141.142 142.464C141.574 142.896 144.074 145.28 146.573 145.28C147.57 145.28 148.452 144.899 149.27 144.123C152.253 141.278 150.098 138.664 149.841 138.374C149.371 137.844 149.417 137.031 149.945 136.557C150.475 136.081 151.288 136.122 151.767 136.645C151.79 136.671 154.051 139.107 156.587 139.107C157.283 139.107 157.925 138.928 158.551 138.555C161.716 136.689 160.13 132.688 160.06 132.517C159.845 131.994 159.998 131.391 160.435 131.029C160.872 130.671 161.488 130.627 161.967 130.943C161.982 130.956 163.812 132.134 165.605 132.134C166.72 132.134 167.52 131.678 168.123 130.7Z" fill="url(#paint2_linear_8931_66882)"/><path d="M133.761 81.0798C130.646 80.1636 125.528 82.4724 118.658 87.8405C110.978 93.848 107.487 97.7771 108.556 99.2059C111.355 102.936 116.6 102.126 126.475 96.835C129.339 95.2975 131.536 94.3476 133.635 94.3476C136.168 94.3476 138.295 95.7789 140.818 97.6477C157.73 110.206 166.099 116.535 168.383 118.271L171.496 116.612L161.35 89.818C157.65 88.6274 137.811 82.2549 133.761 81.0798Z" fill="#8986FD"/><path d="M80.4851 114.029L93.762 78.0956L81.5589 75.0025L72.668 111.273L80.4851 114.029Z" fill="url(#paint3_linear_8931_66882)"/><path d="M129.055 137.944C125.838 134.655 120.671 137.189 120.671 137.189C120.671 137.189 123.862 134.66 120.247 130.961C116.627 127.26 110.794 131.047 110.794 131.047C110.794 131.047 114.145 127.972 110.427 124.169C106.708 120.362 101.054 124.633 101.054 124.633C101.639 122.999 102.095 120.416 100.687 118.975C99.2794 117.536 96.8574 116.324 92.4533 117.761C89.7855 118.636 85.3064 121.524 87.9354 125.233C90.567 128.94 96.1613 127.754 96.1613 127.754C96.1613 127.754 91.5114 129.398 95.9699 133.552C100.426 137.704 105.785 134.248 105.785 134.248C105.785 134.248 102.126 137.106 105.642 140.051C109.161 142.994 115.576 140.103 115.576 140.103C113.76 142.003 114.419 148.062 120.518 147.392C126.615 146.724 132.271 141.234 129.055 137.944Z" fill="#8986FD"/><path d="M166.312 83.2288L179.882 119.121L187.282 116.163L177.579 80.1694L166.312 83.2288Z" fill="#8986FD"/><defs><linearGradient id="paint0_linear_8931_66882" x1="184.355" y1="107.417" x2="145.992" y2="-30.3278" gradientUnits="userSpaceOnUse"><stop stop-color="#3A35FB"/><stop offset="1" stop-color="#8986FD"/></linearGradient><linearGradient id="paint1_linear_8931_66882" x1="207.99" y1="215.093" x2="169.622" y2="77.3393" gradientUnits="userSpaceOnUse"><stop stop-color="#3A35FB"/><stop offset="1" stop-color="#8986FD"/></linearGradient><linearGradient id="paint2_linear_8931_66882" x1="150.497" y1="150.934" x2="109.943" y2="75.1441" gradientUnits="userSpaceOnUse"><stop stop-color="#3A35FB"/><stop offset="1" stop-color="#8986FD"/></linearGradient><linearGradient id="paint3_linear_8931_66882" x1="88.9511" y1="113.941" x2="62.2872" y2="90.614" gradientUnits="userSpaceOnUse"><stop stop-color="#3A35FB"/><stop offset="1" stop-color="#8986FD"/></linearGradient></defs></svg>